<svg id="svg" version="1.1" width="400" height="400" viewBox="0 0 400 400" xmlns="http://www.w3.org/2000/svg" xmlns:xlink="http://www.w3.org/1999/xlink"><g id="svgg"><path id="path0" d="M128.125 95.941 C 114.285 97.645,99.327 102.235,97.535 105.329 C 97.360 105.630,97.053 105.774,96.851 105.649 C 96.649 105.525,96.484 105.609,96.484 105.836 C 96.484 106.064,96.235 106.250,95.931 106.250 C 95.627 106.250,95.304 106.470,95.213 106.738 C 94.941 107.547,95.366 108.594,95.967 108.594 C 96.314 108.594,96.418 108.782,96.237 109.082 C 96.068 109.363,96.251 109.322,96.668 108.984 C 97.221 108.538,97.432 108.514,97.557 108.887 C 97.647 109.155,97.981 109.375,98.298 109.375 C 98.615 109.375,98.780 109.527,98.665 109.713 C 98.550 109.900,98.803 110.366,99.228 110.751 C 99.824 111.290,100.003 111.324,100.015 110.900 C 100.024 110.599,100.297 110.965,100.622 111.715 C 100.947 112.464,101.467 113.220,101.778 113.394 C 102.089 113.568,102.344 113.966,102.344 114.277 C 102.344 114.589,102.618 114.844,102.953 114.844 C 103.314 114.844,103.448 114.660,103.283 114.393 C 103.106 114.107,103.176 114.048,103.474 114.232 C 103.834 114.455,103.837 114.652,103.487 115.074 C 103.235 115.377,103.183 115.628,103.370 115.631 C 103.558 115.634,103.447 115.823,103.125 116.051 C 102.737 116.326,102.714 116.419,103.057 116.329 C 103.341 116.253,103.517 116.052,103.447 115.881 C 103.377 115.710,103.638 115.392,104.026 115.175 C 104.619 114.843,104.650 114.681,104.221 114.151 C 103.887 113.740,103.872 113.619,104.177 113.802 C 104.456 113.969,105.533 113.253,106.856 112.021 C 124.831 95.285,156.947 100.507,172.372 122.673 C 176.997 129.321,179.404 135.927,180.763 145.703 C 181.060 147.840,181.069 147.852,182.426 147.852 L 183.789 147.852 183.789 127.394 L 183.789 106.936 177.539 104.814 C 157.047 97.856,138.957 94.608,128.125 95.941 M269.902 96.110 C 259.401 97.047,242.158 102.451,241.081 105.143 C 241.009 105.322,240.722 105.469,240.443 105.469 C 239.806 105.469,239.446 107.197,239.940 107.885 C 240.211 108.263,240.250 108.218,240.088 107.715 C 239.665 106.399,240.247 107.046,240.856 108.569 C 241.249 109.552,241.660 110.034,241.995 109.906 C 242.552 109.692,243.501 111.056,243.085 111.472 C 242.950 111.608,243.040 111.719,243.287 111.719 C 244.633 111.719,246.559 114.433,246.042 115.602 C 245.626 116.540,245.429 116.666,244.969 116.286 C 244.480 115.882,244.478 115.936,244.953 116.699 C 245.254 117.183,245.644 117.578,245.820 117.578 C 245.996 117.578,246.030 117.401,245.897 117.185 C 245.763 116.968,245.943 116.680,246.297 116.544 C 246.811 116.347,246.836 116.231,246.419 115.967 C 246.012 115.709,246.037 115.636,246.534 115.631 C 247.641 115.621,248.202 114.588,247.385 114.065 C 246.711 113.633,246.710 113.623,247.382 113.833 C 247.877 113.987,248.817 113.351,250.569 111.676 C 263.487 99.323,286.762 99.071,303.757 111.101 C 315.138 119.158,322.126 131.287,323.648 145.627 L 323.910 148.089 325.334 147.970 L 326.758 147.852 326.758 127.363 L 326.758 106.874 319.117 104.287 C 298.579 97.335,283.765 94.873,269.902 96.110 M96.696 107.378 C 96.707 108.178,96.555 108.447,96.175 108.300 C 95.730 108.130,95.727 108.038,96.159 107.764 C 96.655 107.450,96.349 107.269,95.508 107.381 C 95.293 107.410,95.458 107.167,95.875 106.842 C 96.292 106.516,96.644 106.250,96.658 106.250 C 96.671 106.250,96.688 106.758,96.696 107.378 M229.848 114.556 C 213.444 134.657,214.214 162.537,231.751 183.530 L 234.472 186.788 245.068 186.663 L 255.664 186.538 255.788 187.605 C 255.888 188.469,255.755 188.672,255.088 188.672 C 251.893 188.672,244.979 190.978,242.773 192.780 C 242.004 193.408,242.014 193.436,243.359 194.587 C 247.318 197.971,260.225 206.447,270.898 212.671 C 283.434 219.981,292.546 225.857,297.988 230.140 C 301.602 232.984,308.825 239.869,308.682 240.334 C 308.623 240.526,308.728 240.588,308.917 240.472 C 309.105 240.355,310.223 241.353,311.401 242.689 C 323.655 256.584,328.040 272.949,322.622 284.570 L 321.893 286.133 322.896 284.961 C 338.652 266.550,340.738 241.420,328.167 221.462 C 322.158 211.923,314.147 204.331,300.781 195.510 C 294.823 191.577,291.143 189.283,273.174 178.293 C 258.401 169.257,247.048 160.675,247.947 159.221 C 248.068 159.025,247.973 158.984,247.735 159.131 C 247.183 159.472,242.056 153.338,239.160 148.872 C 230.810 135.995,228.148 125.081,230.978 115.332 C 231.493 113.560,231.896 112.112,231.875 112.115 C 231.854 112.117,230.941 113.216,229.848 114.556 M86.818 114.355 C 73.574 130.353,70.796 152.529,79.782 170.508 C 86.973 184.896,97.049 193.914,123.633 209.752 C 135.414 216.772,145.991 223.347,146.297 223.841 C 146.896 224.810,147.656 224.171,147.656 222.699 C 147.656 215.157,151.766 206.147,158.389 199.168 L 160.476 196.970 159.437 196.204 C 158.075 195.200,148.219 189.078,142.773 185.852 C 132.239 179.612,119.858 172.000,116.992 170.000 C 110.480 165.457,104.527 160.341,104.952 159.654 C 105.088 159.434,105.010 159.371,104.779 159.514 C 103.618 160.231,94.654 147.957,91.412 141.211 C 86.517 131.023,85.405 123.377,87.678 115.527 C 88.160 113.862,88.509 112.500,88.454 112.500 C 88.399 112.500,87.663 113.335,86.818 114.355 M168.945 206.301 C 164.922 209.312,163.827 210.925,162.441 215.889 C 161.180 220.410,161.398 229.497,162.825 231.836 C 162.956 232.051,163.111 232.578,163.169 233.008 C 163.347 234.318,167.205 241.832,167.580 241.600 C 167.774 241.481,168.639 242.277,169.503 243.370 C 174.403 249.569,182.656 252.533,191.604 251.306 L 193.472 251.050 193.239 246.690 C 192.504 232.974,186.996 221.196,176.019 209.871 C 170.861 204.549,171.115 204.677,168.945 206.301 M70.917 255.982 C 70.770 263.112,70.706 273.217,70.774 278.439 L 70.898 287.932 74.414 289.503 C 100.617 301.212,125.418 305.539,145.703 301.942 C 153.620 300.538,164.844 297.057,164.844 296.005 C 164.844 295.814,165.020 295.766,165.234 295.898 C 165.449 296.031,165.625 295.943,165.625 295.703 C 165.625 295.463,165.782 295.364,165.975 295.483 C 166.524 295.822,166.876 294.450,166.362 293.978 C 166.031 293.674,165.967 293.674,166.136 293.978 C 166.266 294.211,166.124 294.401,165.820 294.401 C 165.517 294.401,165.353 294.265,165.455 294.100 C 165.557 293.934,164.978 293.113,164.168 292.276 C 163.358 291.438,162.650 290.329,162.594 289.810 C 162.539 289.291,162.142 288.575,161.713 288.217 C 161.162 287.757,161.077 287.509,161.424 287.369 C 161.803 287.216,161.799 287.164,161.403 287.140 C 161.121 287.123,161.000 286.934,161.133 286.719 C 161.266 286.504,161.188 286.328,160.961 286.328 C 160.733 286.328,160.547 286.142,160.547 285.914 C 160.547 285.687,160.750 285.626,160.998 285.779 C 161.283 285.956,161.343 285.886,161.159 285.589 C 160.917 285.198,158.609 286.911,157.031 288.652 C 153.694 292.333,140.171 296.087,130.226 296.091 C 101.747 296.105,79.606 277.056,74.860 248.455 L 73.988 243.198 72.585 243.109 L 71.183 243.019 70.917 255.982 M213.879 247.838 C 213.740 250.424,213.681 260.500,213.747 270.231 L 213.867 287.922 218.750 290.072 C 223.087 291.981,231.935 295.291,238.979 297.637 C 254.319 302.748,274.741 304.626,287.891 302.136 C 297.839 300.251,307.920 296.957,309.028 295.228 C 309.159 295.023,309.423 294.826,309.614 294.791 C 309.805 294.755,309.907 294.565,309.841 294.367 C 309.775 294.170,309.975 294.218,310.284 294.475 C 310.733 294.848,310.899 294.804,311.108 294.260 C 311.252 293.885,311.244 293.703,311.092 293.856 C 310.939 294.009,310.578 293.938,310.290 293.699 C 310.002 293.459,309.766 293.399,309.766 293.565 C 309.766 293.730,309.237 293.312,308.590 292.636 C 307.944 291.960,307.153 291.406,306.833 291.406 C 306.512 291.406,306.250 291.135,306.250 290.803 C 306.250 290.471,305.811 289.759,305.273 289.222 C 304.736 288.685,304.285 287.770,304.269 287.189 C 304.245 286.248,304.205 286.218,303.906 286.914 C 303.722 287.344,303.545 287.607,303.513 287.500 C 303.234 286.549,303.257 285.938,303.573 285.938 C 303.782 285.938,303.851 285.773,303.727 285.572 C 303.603 285.371,303.065 285.611,302.532 286.105 C 301.430 287.126,301.206 287.875,302.246 287.060 C 302.869 286.571,302.881 286.585,302.380 287.224 C 302.034 287.664,301.693 287.787,301.460 287.554 C 301.227 287.321,300.346 287.748,299.080 288.707 C 279.472 303.573,241.762 295.290,226.894 272.852 C 221.826 265.204,217.204 251.945,217.191 245.020 C 217.187 243.317,217.150 243.283,215.171 243.187 L 214.131 243.137 213.879 247.838 M190.862 255.793 C 190.737 255.993,189.931 256.167,189.070 256.179 C 188.209 256.191,187.356 256.293,187.175 256.405 C 186.994 256.517,184.976 256.646,182.690 256.692 L 178.535 256.776 178.784 257.782 C 178.922 258.336,179.256 259.323,179.527 259.975 C 182.375 266.837,182.873 276.258,180.702 282.236 C 179.585 285.315,179.886 285.161,182.907 281.108 C 189.108 272.788,194.566 256.587,191.512 255.569 C 191.278 255.491,190.986 255.592,190.862 255.793 " stroke="none" fill="#b29364" fill-rule="evenodd"></path><path id="path1" d="M197.070 148.302 C 182.318 150.475,174.682 164.362,179.027 181.117 L 179.955 184.696 176.999 186.195 C 156.819 196.435,146.496 211.205,148.038 227.637 C 150.916 258.323,188.680 267.011,212.927 242.566 L 217.065 238.394 219.372 240.317 C 232.587 251.330,246.356 254.986,258.045 250.586 C 261.592 249.251,261.718 249.040,259.025 248.939 C 250.452 248.619,234.428 239.015,225.991 229.139 L 224.106 226.933 226.091 222.744 C 227.183 220.440,229.126 215.918,230.409 212.695 C 234.624 202.107,237.358 196.960,240.084 194.484 C 243.672 191.225,248.211 189.198,252.832 188.791 C 255.275 188.576,255.469 188.491,255.469 187.639 L 255.469 186.719 248.730 186.719 C 230.443 186.721,219.141 187.193,219.141 187.954 C 219.141 188.503,219.439 188.673,220.410 188.676 C 227.151 188.696,231.226 196.744,229.089 205.812 C 227.810 211.235,222.610 224.219,221.717 224.219 C 220.112 224.219,198.438 193.380,198.438 191.096 C 198.438 190.843,199.524 190.088,200.852 189.417 C 214.254 182.652,220.614 171.461,217.233 160.596 C 214.684 152.407,205.835 147.011,197.070 148.302 M204.899 152.138 C 211.665 156.102,212.096 167.414,205.664 172.191 C 202.687 174.402,193.079 179.177,192.600 178.683 C 191.321 177.363,189.453 168.917,189.453 164.454 C 189.453 154.094,197.411 147.749,204.899 152.138 M187.148 199.512 C 192.903 210.037,203.088 224.021,211.020 232.289 C 215.092 236.533,214.989 235.862,212.098 239.350 C 202.411 251.040,188.183 254.960,176.310 249.213 C 163.549 243.037,157.443 224.442,163.849 211.264 C 165.363 208.149,171.602 203.419,179.773 199.190 C 186.060 195.937,185.172 195.898,187.148 199.512 " stroke="none" fill="#13222a" fill-rule="evenodd"></path><path id="path2" d="M86.985 125.586 C 87.105 127.305,87.356 128.903,87.543 129.138 C 87.731 129.372,87.772 129.675,87.636 129.812 C 87.500 129.948,87.605 130.319,87.869 130.638 C 88.133 130.956,88.235 131.399,88.097 131.624 C 87.958 131.848,88.049 132.031,88.300 132.031 C 88.550 132.031,88.654 132.295,88.531 132.617 C 88.395 132.971,88.529 133.203,88.870 133.203 C 89.181 133.203,89.747 133.684,90.128 134.271 C 90.509 134.858,91.128 135.649,91.504 136.029 C 92.232 136.763,92.373 137.331,91.895 137.599 C 91.733 137.689,91.823 137.708,92.095 137.642 C 92.439 137.557,92.520 137.841,92.363 138.585 C 92.163 139.531,92.190 139.567,92.607 138.905 C 93.041 138.215,93.126 138.266,93.774 139.599 C 94.949 142.013,95.234 144.114,94.347 143.819 C 94.138 143.749,94.297 144.057,94.700 144.502 C 95.486 145.371,96.064 145.637,95.400 144.824 C 95.119 144.481,95.176 144.174,95.591 143.791 C 96.105 143.317,96.152 143.342,95.951 143.986 C 95.667 144.898,96.566 146.719,97.229 146.572 C 97.496 146.513,97.603 146.645,97.467 146.865 C 97.331 147.085,97.400 147.266,97.621 147.266 C 97.842 147.266,97.936 147.490,97.831 147.765 C 97.725 148.040,97.901 148.611,98.221 149.035 C 98.744 149.726,98.805 149.735,98.816 149.121 C 98.823 148.745,98.631 148.438,98.390 148.438 C 98.074 148.438,98.080 148.283,98.409 147.886 C 98.706 147.528,98.729 147.250,98.474 147.093 C 98.258 146.959,98.191 146.563,98.326 146.212 C 98.474 145.826,98.412 145.673,98.168 145.823 C 97.925 145.974,97.808 145.690,97.872 145.108 C 97.930 144.578,97.844 144.062,97.681 143.961 C 97.364 143.765,97.090 139.319,97.138 135.156 C 97.156 133.603,97.063 132.996,96.900 133.594 C 96.639 134.546,96.626 134.539,96.375 133.310 C 96.212 132.513,95.286 131.203,93.859 129.753 C 92.617 128.490,90.840 126.640,89.910 125.643 C 88.980 124.645,87.982 123.828,87.693 123.828 C 87.403 123.828,87.077 123.521,86.967 123.145 C 86.857 122.769,86.865 123.867,86.985 125.586 M230.283 125.768 C 230.403 127.587,230.633 129.169,230.794 129.284 C 230.956 129.398,231.126 130.015,231.172 130.655 C 231.218 131.294,231.598 132.510,232.017 133.356 C 232.436 134.203,232.688 135.042,232.577 135.221 C 232.466 135.400,232.581 135.547,232.831 135.547 C 233.099 135.547,233.182 135.820,233.033 136.209 C 232.818 136.769,232.911 136.754,233.643 136.111 C 234.327 135.510,234.460 135.482,234.280 135.979 C 234.119 136.421,234.446 136.794,235.385 137.242 C 236.119 137.592,236.719 138.069,236.719 138.303 C 236.719 138.536,236.982 138.991,237.304 139.313 C 237.626 139.635,237.989 140.369,238.110 140.945 C 238.231 141.521,238.409 142.381,238.505 142.857 C 238.616 143.407,238.881 143.645,239.232 143.511 C 239.912 143.250,240.777 144.742,240.447 145.605 C 240.315 145.947,240.393 146.341,240.619 146.481 C 241.353 146.934,241.867 149.329,241.173 149.063 C 240.839 148.935,240.688 149.004,240.823 149.223 C 240.954 149.436,241.315 149.609,241.625 149.609 C 242.351 149.609,242.336 149.907,241.573 150.671 C 241.074 151.169,241.056 151.346,241.475 151.605 C 241.759 151.781,241.992 152.151,241.992 152.427 C 241.992 152.704,242.256 152.930,242.578 152.931 C 242.900 152.931,243.165 153.266,243.166 153.675 C 243.167 154.084,243.471 154.463,243.841 154.517 C 244.454 154.607,244.464 154.518,243.952 153.529 C 243.643 152.932,243.501 152.333,243.635 152.198 C 244.102 151.732,243.123 151.955,242.569 152.441 C 242.263 152.710,242.360 152.504,242.784 151.985 C 243.483 151.128,243.489 151.063,242.855 151.295 C 242.298 151.498,242.227 151.423,242.508 150.921 C 242.737 150.512,242.665 149.901,242.302 149.174 C 241.996 148.560,241.855 147.879,241.989 147.661 C 242.124 147.444,242.027 147.266,241.774 147.266 C 241.508 147.266,241.401 146.938,241.519 146.485 C 241.632 146.055,241.561 145.604,241.363 145.481 C 241.165 145.359,241.104 145.095,241.228 144.895 C 241.351 144.695,241.317 144.312,241.151 144.044 C 240.985 143.776,240.816 142.853,240.775 141.993 C 240.407 134.333,240.231 133.472,238.733 131.999 C 237.947 131.227,236.865 130.014,236.328 129.303 C 235.791 128.593,234.672 127.291,233.841 126.411 C 233.010 125.531,231.999 124.390,231.595 123.876 C 231.137 123.295,230.849 123.146,230.832 123.482 C 230.816 123.798,230.651 123.698,230.435 123.242 C 230.187 122.718,230.137 123.551,230.283 125.768 M95.380 146.234 C 95.954 146.788,96.537 147.598,96.676 148.035 C 96.814 148.471,97.096 148.828,97.302 148.828 C 97.972 148.828,96.553 146.619,95.430 145.914 L 94.336 145.227 95.380 146.234 M238.678 146.387 C 238.683 146.971,238.739 146.985,239.063 146.484 C 239.280 146.148,239.444 146.093,239.447 146.355 C 239.450 146.606,239.561 147.091,239.692 147.433 C 239.867 147.889,239.762 147.991,239.301 147.814 C 238.955 147.681,238.672 147.661,238.672 147.768 C 238.672 148.422,239.896 148.289,240.267 147.595 C 240.579 147.012,240.581 146.856,240.273 147.046 C 240.014 147.206,239.844 146.993,239.844 146.507 C 239.844 146.053,239.589 145.703,239.258 145.703 C 238.936 145.703,238.675 146.011,238.678 146.387 M96.680 149.609 C 96.547 149.824,96.624 150.000,96.852 150.000 C 97.079 150.000,97.266 150.221,97.266 150.492 C 97.266 150.763,97.624 151.208,98.062 151.481 C 98.500 151.755,98.761 152.137,98.642 152.330 C 98.249 152.965,99.089 153.111,99.845 152.539 C 100.252 152.230,100.372 151.972,100.110 151.966 C 99.848 151.959,99.735 151.689,99.859 151.367 C 99.982 151.045,99.879 150.781,99.628 150.781 C 99.378 150.781,99.281 150.605,99.414 150.391 C 99.547 150.176,99.411 150.000,99.112 150.000 C 98.195 150.000,98.024 150.480,98.737 151.057 C 99.348 151.552,99.330 151.565,98.558 151.192 C 97.997 150.921,97.753 150.509,97.852 149.998 C 98.009 149.184,97.124 148.891,96.680 149.609 M99.821 153.098 C 99.698 153.298,99.778 153.574,100.000 153.711 C 100.222 153.848,100.320 154.096,100.217 154.262 C 100.115 154.428,100.546 154.944,101.176 155.410 C 101.978 156.003,102.254 156.080,102.096 155.668 C 101.971 155.343,101.713 155.078,101.521 155.078 C 101.329 155.078,101.191 154.946,101.214 154.785 C 101.388 153.583,100.321 152.290,99.821 153.098 M310.156 242.099 C 310.156 242.332,310.432 242.799,310.770 243.136 C 311.108 243.474,311.262 243.750,311.113 243.750 C 310.964 243.750,311.038 243.986,311.277 244.274 C 311.516 244.563,311.596 244.914,311.455 245.055 C 311.314 245.197,311.384 245.313,311.612 245.313 C 311.840 245.313,312.127 245.049,312.251 244.727 C 312.374 244.404,312.305 244.141,312.097 244.141 C 311.889 244.141,311.719 243.904,311.719 243.615 C 311.719 243.326,311.367 242.772,310.938 242.383 C 310.508 241.994,310.156 241.866,310.156 242.099 M313.504 252.567 C 313.361 253.139,313.331 253.696,313.439 253.803 C 313.546 253.911,313.751 253.530,313.895 252.958 C 314.039 252.385,314.068 251.829,313.961 251.721 C 313.854 251.614,313.648 251.994,313.504 252.567 M314.296 254.199 C 314.106 254.814,313.205 264.289,313.152 266.211 C 313.087 268.617,313.311 269.886,313.770 269.710 C 314.044 269.604,314.492 270.049,314.791 270.726 C 315.084 271.387,315.713 272.318,316.189 272.794 C 316.665 273.270,317.216 273.921,317.414 274.240 C 318.029 275.233,321.995 278.488,322.334 278.278 C 322.511 278.168,322.656 278.363,322.656 278.711 C 322.656 279.059,322.817 279.244,323.014 279.122 C 323.210 279.001,323.450 279.122,323.546 279.392 C 323.866 280.289,324.148 279.521,324.541 276.682 C 324.930 273.872,324.737 269.118,324.220 268.750 C 324.069 268.643,323.745 268.027,323.501 267.383 L 323.056 266.211 323.267 267.431 C 323.547 269.052,322.425 269.611,321.862 268.131 C 321.371 266.840,321.385 266.700,321.973 267.003 C 322.241 267.142,322.021 266.892,321.484 266.449 C 320.947 266.005,320.670 265.638,320.869 265.634 C 321.067 265.629,320.873 265.229,320.436 264.746 C 320.000 264.263,319.403 263.306,319.111 262.621 C 318.722 261.709,318.452 261.480,318.103 261.770 C 317.536 262.240,315.389 259.291,315.806 258.616 C 316.038 258.241,315.528 258.028,314.726 258.164 C 314.554 258.193,314.484 257.159,314.570 255.866 C 314.731 253.444,314.660 253.013,314.296 254.199 M171.012 257.715 C 170.967 258.735,170.894 260.537,170.849 261.719 C 170.805 262.900,170.580 264.717,170.350 265.756 C 170.079 266.982,170.060 268.208,170.294 269.251 C 170.492 270.134,170.583 270.972,170.495 271.114 C 170.408 271.256,170.799 271.283,171.365 271.175 C 172.156 271.024,172.343 271.111,172.173 271.552 C 172.049 271.876,172.276 272.328,172.695 272.590 C 173.103 272.845,173.438 273.289,173.438 273.576 C 173.438 273.864,173.789 274.505,174.219 275.000 C 174.648 275.495,175.000 275.773,175.000 275.616 C 175.000 275.459,175.480 275.915,176.067 276.630 C 176.653 277.345,177.508 278.281,177.967 278.711 C 178.426 279.141,179.003 279.844,179.250 280.273 C 179.643 280.959,179.671 280.911,179.478 279.883 L 179.258 278.711 180.016 280.068 L 180.774 281.425 181.226 279.872 C 181.475 279.019,181.739 276.475,181.813 274.219 C 181.887 271.963,181.865 270.529,181.763 271.031 C 181.583 271.917,181.537 271.900,180.264 270.470 C 179.542 269.658,179.056 268.824,179.184 268.616 C 179.313 268.409,179.235 268.352,179.011 268.490 C 178.516 268.796,177.539 267.696,177.539 266.834 C 177.539 266.492,177.144 265.815,176.660 265.332 C 176.177 264.849,175.781 264.001,175.781 263.449 C 175.781 262.896,175.505 262.168,175.166 261.829 C 174.667 261.330,174.649 261.153,175.069 260.887 C 175.494 260.617,175.492 260.558,175.056 260.553 C 174.732 260.549,174.619 260.304,174.765 259.925 C 174.922 259.514,174.747 259.236,174.247 259.105 C 173.830 258.996,173.579 258.680,173.686 258.399 C 173.794 258.120,173.701 257.780,173.481 257.644 C 173.261 257.508,173.171 257.162,173.281 256.875 C 173.401 256.562,173.120 256.256,172.581 256.111 C 171.139 255.725,171.098 255.767,171.012 257.715 " stroke="none" fill="#715b3e" fill-rule="evenodd"></path><path id="path3" d="M88.434 114.227 C 88.317 114.533,88.174 115.016,88.116 115.302 C 88.058 115.587,87.823 116.276,87.593 116.833 C 86.511 119.457,86.575 123.828,87.695 123.828 C 87.983 123.828,88.980 124.648,89.910 125.651 C 90.840 126.653,92.548 128.418,93.704 129.573 C 94.860 130.727,96.039 132.324,96.323 133.121 C 96.703 134.184,96.845 134.336,96.858 133.691 C 96.867 133.208,97.026 132.813,97.210 132.813 C 97.394 132.813,97.543 132.329,97.541 131.738 C 97.540 131.147,97.829 129.643,98.184 128.394 C 98.696 126.599,98.735 125.946,98.373 125.269 C 98.121 124.799,97.945 124.326,97.981 124.219 C 98.017 124.111,97.827 124.023,97.559 124.023 C 97.291 124.023,97.071 123.672,97.071 123.242 C 97.071 122.807,96.681 122.290,96.191 122.075 C 95.708 121.863,95.313 121.553,95.313 121.387 C 95.313 120.955,92.452 117.970,92.038 117.969 C 91.643 117.969,90.234 116.431,90.234 116.001 C 90.234 115.845,89.883 115.624,89.453 115.512 C 89.010 115.396,88.685 114.995,88.703 114.587 C 88.720 114.176,88.818 114.077,88.931 114.355 C 89.039 114.624,89.283 114.844,89.473 114.844 C 89.664 114.844,89.718 114.580,89.594 114.258 C 89.310 113.518,88.713 113.502,88.434 114.227 M230.679 117.126 C 230.284 118.740,230.098 120.573,230.220 121.675 C 230.407 123.375,230.859 124.631,230.859 123.450 C 230.859 123.170,231.190 123.362,231.595 123.876 C 231.999 124.390,233.010 125.531,233.841 126.411 C 234.672 127.291,235.791 128.593,236.328 129.303 C 236.865 130.014,237.964 131.243,238.770 132.034 C 239.985 133.228,240.246 133.765,240.300 135.193 L 240.366 136.914 240.503 135.352 C 240.683 133.301,241.379 128.570,241.676 127.383 C 241.848 126.696,241.781 126.526,241.424 126.747 C 241.046 126.980,241.034 126.868,241.367 126.245 C 241.604 125.803,241.797 125.332,241.797 125.198 C 241.797 125.064,241.604 125.073,241.367 125.219 C 241.061 125.409,241.052 125.271,241.338 124.737 C 241.669 124.118,241.539 123.859,240.576 123.225 C 239.938 122.805,239.155 121.922,238.837 121.262 C 238.520 120.603,237.474 119.567,236.513 118.960 C 235.552 118.352,234.766 117.607,234.766 117.303 C 234.766 116.999,234.608 116.848,234.416 116.967 C 233.969 117.243,233.509 116.079,233.848 115.529 C 233.997 115.288,233.920 115.228,233.665 115.386 C 233.423 115.535,232.801 115.380,232.283 115.040 L 231.341 114.423 230.679 117.126 M96.974 136.133 C 96.978 136.992,97.058 137.298,97.151 136.812 C 97.245 136.326,97.241 135.623,97.143 135.249 C 97.046 134.876,96.969 135.273,96.974 136.133 M170.815 257.617 C 170.818 258.691,170.894 259.084,170.983 258.491 C 171.073 257.897,171.071 257.018,170.978 256.538 C 170.885 256.057,170.812 256.543,170.815 257.617 M312.956 267.871 C 312.920 268.354,312.704 268.750,312.477 268.750 C 312.249 268.750,312.177 268.933,312.315 269.158 C 312.454 269.382,312.355 269.821,312.095 270.134 C 311.836 270.447,311.754 270.703,311.914 270.703 C 312.074 270.703,312.033 270.923,311.823 271.191 C 311.269 271.901,310.516 274.284,310.926 274.030 C 311.118 273.912,311.387 273.998,311.525 274.222 C 311.664 274.446,311.632 274.604,311.455 274.573 C 310.664 274.435,310.130 274.642,310.352 275.000 C 310.484 275.215,310.446 275.391,310.266 275.391 C 309.655 275.391,309.919 278.632,310.547 278.834 C 311.284 279.070,314.050 282.080,314.057 282.654 C 314.065 283.273,315.442 284.428,315.775 284.095 C 315.930 283.940,315.941 284.115,315.799 284.485 C 315.613 284.971,315.742 285.157,316.267 285.159 C 317.101 285.162,319.205 286.453,319.205 286.963 C 319.206 287.151,319.307 287.393,319.431 287.500 C 319.555 287.607,319.536 287.484,319.388 287.227 C 319.117 286.754,320.418 285.783,320.804 286.169 C 321.120 286.484,322.423 284.406,323.359 282.094 C 324.151 280.141,323.848 278.235,322.898 279.185 C 322.765 279.318,322.656 279.124,322.656 278.753 C 322.656 278.382,322.511 278.168,322.334 278.278 C 321.995 278.488,318.029 275.233,317.414 274.240 C 317.216 273.921,316.665 273.270,316.189 272.794 C 315.713 272.318,315.084 271.387,314.791 270.726 C 314.498 270.064,314.049 269.603,313.792 269.701 C 313.497 269.815,313.270 269.351,313.174 268.436 C 313.090 267.642,312.992 267.388,312.956 267.871 M169.809 269.141 C 169.921 269.570,169.831 269.922,169.608 269.922 C 169.266 269.922,168.699 271.540,168.687 272.552 C 168.685 272.717,168.516 273.053,168.311 273.300 C 168.107 273.547,168.020 274.195,168.119 274.741 C 168.254 275.486,168.159 275.680,167.739 275.519 C 167.332 275.363,167.252 275.494,167.445 275.997 C 167.643 276.515,167.570 276.618,167.156 276.402 C 166.851 276.244,166.903 276.362,167.272 276.664 C 168.055 277.308,167.469 278.209,166.508 277.840 C 166.186 277.716,166.339 278.040,166.848 278.559 C 167.357 279.078,167.883 279.350,168.018 279.163 C 168.359 278.688,168.855 279.592,168.536 280.108 C 168.393 280.339,168.647 280.874,169.099 281.295 C 169.552 281.717,169.922 282.210,169.922 282.391 C 169.922 282.967,174.614 287.496,175.110 287.398 C 175.372 287.347,175.715 287.129,175.873 286.914 C 176.048 286.675,176.162 286.722,176.166 287.035 C 176.169 287.316,176.392 287.435,176.660 287.299 C 176.929 287.163,176.807 287.328,176.390 287.666 C 175.973 288.005,175.832 288.281,176.077 288.281 C 176.779 288.281,178.929 285.798,178.716 285.234 C 178.611 284.954,178.700 284.833,178.914 284.966 C 179.128 285.098,179.652 284.393,180.078 283.399 L 180.853 281.591 180.056 280.151 C 179.278 278.744,179.265 278.738,179.479 279.883 C 179.671 280.912,179.643 280.959,179.250 280.273 C 179.003 279.844,178.426 279.141,177.967 278.711 C 177.508 278.281,176.653 277.345,176.067 276.630 C 175.480 275.915,175.000 275.459,175.000 275.616 C 175.000 275.773,174.648 275.495,174.219 275.000 C 173.789 274.505,173.438 273.864,173.438 273.576 C 173.438 273.289,173.103 272.845,172.695 272.590 C 172.276 272.328,172.049 271.876,172.173 271.552 C 172.341 271.115,172.159 271.023,171.407 271.167 C 170.841 271.275,170.424 271.175,170.428 270.932 C 170.455 269.411,170.263 268.359,169.958 268.359 C 169.764 268.359,169.696 268.711,169.809 269.141 M308.984 278.906 C 308.984 279.121,308.731 279.297,308.421 279.297 C 308.112 279.297,307.777 279.429,307.678 279.590 C 307.578 279.751,307.885 279.883,308.360 279.883 C 308.902 279.883,309.243 279.629,309.275 279.199 C 309.303 278.823,309.249 278.516,309.155 278.516 C 309.061 278.516,308.984 278.691,308.984 278.906 M320.120 285.154 C 320.497 284.841,320.712 284.863,320.926 285.235 C 321.087 285.514,321.073 285.610,320.895 285.448 C 320.717 285.287,320.286 285.412,319.938 285.728 C 319.373 286.239,319.300 286.208,319.263 285.435 C 319.239 284.960,319.307 284.797,319.414 285.075 C 319.556 285.445,319.744 285.466,320.120 285.154 " stroke="none" fill="#856b48" fill-rule="evenodd"></path><path id="path4" d="M96.249 106.152 C 96.493 106.576,96.117 106.794,95.288 106.711 C 94.657 106.648,89.165 111.726,88.598 112.896 C 87.449 115.268,87.225 116.733,88.125 115.987 C 88.851 115.386,90.234 115.384,90.234 115.984 C 90.234 116.427,91.635 117.969,92.038 117.969 C 92.452 117.970,95.313 120.955,95.313 121.387 C 95.313 121.553,95.708 121.863,96.191 122.075 C 96.681 122.290,97.071 122.807,97.071 123.242 C 97.071 123.676,97.332 124.023,97.657 124.023 C 97.979 124.023,98.264 124.243,98.291 124.512 C 98.318 124.780,98.362 125.176,98.389 125.391 C 98.416 125.605,98.624 125.781,98.851 125.781 C 99.079 125.781,99.166 125.621,99.045 125.425 C 98.924 125.229,99.071 124.570,99.371 123.960 C 101.873 118.884,102.823 116.809,102.751 116.573 C 102.705 116.422,102.890 116.161,103.162 115.993 C 103.801 115.598,103.955 114.529,103.420 114.199 C 103.175 114.047,103.119 114.127,103.283 114.393 C 103.448 114.660,103.314 114.844,102.953 114.844 C 102.618 114.844,102.344 114.589,102.344 114.277 C 102.344 113.966,102.089 113.568,101.778 113.394 C 101.467 113.220,100.947 112.464,100.622 111.715 C 100.297 110.965,100.024 110.599,100.015 110.900 C 100.003 111.324,99.824 111.290,99.228 110.751 C 98.803 110.366,98.550 109.900,98.665 109.713 C 98.780 109.527,98.676 109.375,98.433 109.375 C 97.692 109.375,96.680 108.116,96.667 107.177 C 96.660 106.688,96.500 106.149,96.311 105.977 C 96.121 105.803,96.093 105.881,96.249 106.152 M238.957 106.286 C 238.576 106.507,238.384 106.881,238.529 107.116 C 238.687 107.372,238.612 107.431,238.340 107.263 C 237.629 106.823,232.192 111.476,231.671 112.970 C 231.197 114.332,232.339 115.853,233.516 115.427 C 233.796 115.326,233.927 115.401,233.808 115.594 C 233.498 116.096,233.998 117.225,234.416 116.967 C 234.608 116.848,234.766 116.999,234.766 117.303 C 234.766 117.607,235.552 118.352,236.513 118.960 C 237.474 119.567,238.520 120.603,238.837 121.262 C 239.155 121.922,239.938 122.805,240.576 123.225 C 241.539 123.859,241.669 124.118,241.338 124.737 C 241.052 125.271,241.061 125.409,241.367 125.219 C 241.904 124.888,241.915 125.222,241.397 126.189 C 241.075 126.791,241.112 126.891,241.593 126.707 C 242.153 126.492,242.362 125.823,242.217 124.707 C 242.182 124.438,242.366 124.219,242.626 124.219 C 242.886 124.219,243.000 124.120,242.880 124.000 C 242.759 123.879,243.328 122.429,244.144 120.777 C 245.549 117.932,245.595 117.722,245.018 116.797 C 244.415 115.828,244.417 115.826,245.213 116.529 C 245.814 117.059,246.091 117.118,246.311 116.762 C 246.499 116.458,246.442 116.386,246.154 116.564 C 245.569 116.926,245.575 116.210,246.165 115.266 C 246.643 114.500,244.387 111.719,243.287 111.719 C 243.040 111.719,242.950 111.608,243.085 111.472 C 243.501 111.056,242.552 109.692,241.995 109.906 C 241.660 110.034,241.249 109.552,240.856 108.569 C 240.247 107.046,239.665 106.399,240.088 107.715 C 240.256 108.237,240.218 108.273,239.928 107.867 C 239.720 107.575,239.636 107.003,239.742 106.597 C 239.962 105.755,239.907 105.733,238.957 106.286 M96.343 107.541 C 96.492 107.690,96.376 107.813,96.084 107.813 C 95.731 107.813,95.794 107.988,96.274 108.339 C 96.836 108.750,96.882 108.934,96.483 109.180 C 96.146 109.389,96.068 109.343,96.252 109.045 C 96.413 108.783,96.293 108.594,95.967 108.594 C 95.657 108.594,95.317 108.261,95.210 107.854 C 95.021 107.130,95.735 106.933,96.343 107.541 M89.594 114.258 C 89.718 114.580,89.664 114.844,89.473 114.844 C 89.283 114.844,89.039 114.624,88.931 114.355 C 88.809 114.055,88.722 114.121,88.703 114.528 C 88.686 114.891,88.469 115.314,88.221 115.467 C 87.973 115.620,87.858 115.587,87.965 115.392 C 88.073 115.198,88.270 114.731,88.404 114.355 C 88.702 113.517,89.292 113.469,89.594 114.258 M229.819 123.047 C 229.819 124.658,229.888 125.317,229.972 124.512 C 230.056 123.706,230.056 122.388,229.972 121.582 C 229.888 120.776,229.819 121.436,229.819 123.047 M86.445 123.047 C 86.445 124.229,86.518 124.712,86.608 124.121 C 86.697 123.530,86.697 122.563,86.608 121.973 C 86.518 121.382,86.445 121.865,86.445 123.047 M248.474 160.645 C 248.566 160.698,249.343 161.357,250.200 162.109 L 251.758 163.477 250.412 162.012 C 249.671 161.206,248.895 160.547,248.686 160.547 C 248.478 160.547,248.382 160.591,248.474 160.645 M107.227 162.500 C 108.066 163.359,108.840 164.063,108.948 164.063 C 109.055 164.063,108.456 163.359,107.617 162.500 C 106.778 161.641,106.004 160.938,105.896 160.938 C 105.789 160.938,106.387 161.641,107.227 162.500 M252.441 186.597 C 252.817 186.696,253.433 186.696,253.809 186.597 C 254.185 186.499,253.877 186.419,253.125 186.419 C 252.373 186.419,252.065 186.499,252.441 186.597 M309.481 241.052 C 309.861 241.273,310.089 241.590,309.986 241.756 C 309.884 241.922,310.057 242.057,310.370 242.057 C 310.842 242.057,310.829 241.934,310.293 241.341 C 309.936 240.947,309.452 240.630,309.217 240.637 C 308.982 240.643,309.100 240.830,309.481 241.052 M166.992 276.172 C 167.125 276.387,167.037 276.563,166.797 276.563 C 166.557 276.563,166.460 276.723,166.581 276.920 C 166.702 277.116,166.590 277.348,166.331 277.434 C 166.026 277.536,166.084 277.677,166.495 277.835 C 166.845 277.969,167.341 277.825,167.597 277.516 C 167.914 277.134,167.927 276.953,167.638 276.953 C 167.404 276.953,167.313 276.689,167.437 276.367 C 167.561 276.045,167.457 275.781,167.206 275.781 C 166.956 275.781,166.859 275.957,166.992 276.172 M309.570 276.172 C 309.703 276.387,309.615 276.563,309.375 276.563 C 309.135 276.563,309.047 276.738,309.180 276.953 C 309.312 277.168,309.225 277.344,308.984 277.344 C 308.744 277.344,308.648 277.505,308.770 277.703 C 308.892 277.900,308.714 278.340,308.374 278.679 C 307.844 279.210,307.839 279.297,308.338 279.297 C 308.658 279.297,309.004 279.077,309.107 278.809 C 309.211 278.540,309.277 278.704,309.254 279.172 C 309.231 279.641,309.072 279.937,308.900 279.831 C 308.373 279.505,307.031 280.099,307.031 280.658 C 307.031 280.948,306.896 281.243,306.732 281.315 C 305.928 281.664,303.479 285.171,303.742 285.597 C 303.942 285.921,303.833 285.993,303.397 285.826 C 303.046 285.691,302.653 285.753,302.523 285.964 C 302.392 286.175,302.510 286.299,302.785 286.240 C 303.060 286.181,303.315 286.353,303.351 286.621 C 303.489 287.627,303.579 287.675,303.906 286.914 C 304.205 286.218,304.245 286.248,304.269 287.189 C 304.285 287.770,304.736 288.685,305.273 289.222 C 305.811 289.759,306.250 290.471,306.250 290.803 C 306.250 291.135,306.512 291.406,306.833 291.406 C 307.153 291.406,307.944 291.960,308.590 292.636 C 309.237 293.312,309.766 293.725,309.766 293.552 C 309.766 293.379,310.085 293.527,310.475 293.880 C 311.687 294.977,322.661 286.726,322.654 284.724 C 322.653 284.425,322.220 284.707,321.692 285.352 C 321.163 285.996,320.725 286.385,320.717 286.217 C 320.709 286.048,320.347 286.101,319.911 286.334 C 319.475 286.567,319.239 286.952,319.385 287.189 C 319.551 287.458,319.472 287.510,319.175 287.326 C 318.913 287.164,318.799 286.930,318.922 286.807 C 319.248 286.481,317.122 285.162,316.267 285.159 C 315.742 285.157,315.613 284.971,315.799 284.485 C 315.941 284.115,315.930 283.940,315.775 284.095 C 315.442 284.428,314.065 283.273,314.057 282.654 C 314.049 282.059,311.282 279.094,310.450 278.790 C 309.925 278.598,309.808 278.223,309.944 277.161 C 310.045 276.373,309.951 275.781,309.725 275.781 C 309.507 275.781,309.438 275.957,309.570 276.172 M165.625 278.711 C 165.625 279.033,165.449 279.297,165.234 279.297 C 165.020 279.297,164.844 279.473,164.844 279.689 C 164.844 279.905,163.877 281.342,162.695 282.882 C 160.521 285.716,160.213 286.328,160.961 286.328 C 161.188 286.328,161.275 286.489,161.153 286.685 C 161.032 286.882,161.153 287.132,161.423 287.240 C 161.791 287.389,161.781 287.446,161.383 287.469 C 161.031 287.490,161.130 287.732,161.672 288.184 C 162.124 288.560,162.539 289.291,162.594 289.810 C 162.650 290.329,163.358 291.438,164.168 292.276 C 164.978 293.113,165.557 293.934,165.455 294.100 C 165.353 294.265,165.517 294.401,165.820 294.401 C 166.124 294.401,166.265 294.227,166.133 294.015 C 165.995 293.792,166.096 293.753,166.373 293.924 C 166.635 294.087,166.756 294.466,166.640 294.766 C 166.232 295.831,170.966 293.090,174.563 290.180 C 176.357 288.728,177.887 286.486,176.497 287.345 C 176.318 287.456,176.169 287.316,176.166 287.035 C 176.162 286.722,176.048 286.675,175.873 286.914 C 175.137 287.915,171.951 285.524,170.058 282.550 C 169.671 281.942,169.123 281.300,168.840 281.123 C 168.555 280.945,168.427 280.481,168.553 280.082 C 168.679 279.686,168.599 279.250,168.375 279.111 C 168.152 278.973,167.969 279.085,167.969 279.361 C 167.969 279.636,167.695 279.471,167.361 278.993 C 166.668 278.004,165.625 277.835,165.625 278.711 M178.769 285.250 C 178.890 285.445,178.574 286.074,178.068 286.647 L 177.148 287.690 178.064 286.916 C 179.310 285.861,179.804 284.896,179.098 284.896 C 178.796 284.896,178.649 285.055,178.769 285.250 M319.263 285.435 C 319.300 286.208,319.373 286.239,319.938 285.728 C 320.286 285.412,320.717 285.287,320.895 285.448 C 321.073 285.610,321.087 285.514,320.926 285.235 C 320.712 284.863,320.497 284.841,320.120 285.154 C 319.744 285.466,319.556 285.445,319.414 285.075 C 319.307 284.797,319.239 284.960,319.263 285.435 " stroke="none" fill="#907651" fill-rule="evenodd"></path><path id="path5" d="M271.001 95.979 C 271.487 96.073,272.190 96.069,272.563 95.972 C 272.937 95.874,272.539 95.797,271.680 95.802 C 270.820 95.806,270.515 95.886,271.001 95.979 M281.152 95.979 C 281.636 96.072,282.427 96.072,282.910 95.979 C 283.394 95.886,282.998 95.810,282.031 95.810 C 281.064 95.810,280.669 95.886,281.152 95.979 M132.134 102.233 C 132.728 102.323,133.607 102.321,134.087 102.228 C 134.568 102.135,134.082 102.062,133.008 102.065 C 131.934 102.068,131.541 102.144,132.134 102.233 M184.162 122.461 C 184.161 130.625,184.213 134.020,184.277 130.006 C 184.340 125.992,184.340 119.312,184.277 115.162 C 184.214 111.013,184.162 114.297,184.162 122.461 M327.118 116.406 C 327.118 120.811,327.175 122.612,327.244 120.410 C 327.314 118.208,327.314 114.604,327.244 112.402 C 327.175 110.200,327.118 112.002,327.118 116.406 M107.983 111.035 L 106.836 112.305 108.105 111.157 C 108.804 110.526,109.375 109.955,109.375 109.888 C 109.375 109.586,109.053 109.852,107.983 111.035 M166.602 116.016 C 167.441 116.875,168.215 117.578,168.323 117.578 C 168.430 117.578,167.831 116.875,166.992 116.016 C 166.153 115.156,165.379 114.453,165.271 114.453 C 165.164 114.453,165.762 115.156,166.602 116.016 M327.106 133.203 C 327.106 136.104,327.168 137.290,327.243 135.840 C 327.318 134.390,327.318 132.017,327.243 130.566 C 327.168 129.116,327.106 130.303,327.106 133.203 M97.400 136.914 C 97.401 138.633,97.470 139.287,97.552 138.369 C 97.635 137.450,97.634 136.044,97.550 135.244 C 97.466 134.444,97.398 135.195,97.400 136.914 M327.074 141.602 C 327.076 142.891,327.149 143.371,327.236 142.669 C 327.323 141.967,327.321 140.912,327.232 140.325 C 327.143 139.738,327.072 140.313,327.074 141.602 M184.116 143.750 C 184.116 145.361,184.185 146.021,184.269 145.215 C 184.353 144.409,184.353 143.091,184.269 142.285 C 184.185 141.479,184.116 142.139,184.116 143.750 M74.309 145.313 C 74.309 146.064,74.390 146.372,74.488 145.996 C 74.586 145.620,74.586 145.005,74.488 144.629 C 74.390 144.253,74.309 144.561,74.309 145.313 M217.717 147.852 C 217.716 149.785,217.782 150.625,217.864 149.719 C 217.945 148.812,217.946 147.230,217.866 146.203 C 217.785 145.176,217.718 145.918,217.717 147.852 M180.469 146.461 C 180.469 147.093,180.608 147.696,180.778 147.801 C 180.948 147.906,181.016 147.389,180.930 146.652 C 180.739 145.011,180.469 144.899,180.469 146.461 M323.528 146.875 C 323.528 147.627,323.609 147.935,323.707 147.559 C 323.805 147.183,323.805 146.567,323.707 146.191 C 323.609 145.815,323.528 146.123,323.528 146.875 M325.586 148.047 L 324.414 148.345 325.465 148.391 C 326.043 148.417,326.625 148.262,326.758 148.047 C 326.891 147.832,326.945 147.677,326.879 147.702 C 326.812 147.728,326.230 147.883,325.586 148.047 M74.317 150.586 C 74.322 151.445,74.402 151.751,74.495 151.265 C 74.588 150.779,74.585 150.076,74.487 149.702 C 74.389 149.329,74.313 149.727,74.317 150.586 M107.422 162.232 C 107.422 162.299,107.993 162.870,108.691 163.501 L 109.961 164.648 108.814 163.379 C 107.744 162.196,107.422 161.930,107.422 162.232 M93.555 189.063 C 94.613 190.137,95.566 191.016,95.674 191.016 C 95.781 191.016,95.003 190.137,93.945 189.063 C 92.887 187.988,91.934 187.109,91.826 187.109 C 91.719 187.109,92.497 187.988,93.555 189.063 M174.805 208.594 C 176.729 210.527,178.392 212.109,178.499 212.109 C 178.607 212.109,177.120 210.527,175.195 208.594 C 173.271 206.660,171.608 205.078,171.501 205.078 C 171.393 205.078,172.880 206.660,174.805 208.594 M300.391 232.153 C 300.391 232.221,300.962 232.792,301.660 233.423 L 302.930 234.570 301.782 233.301 C 300.713 232.117,300.391 231.852,300.391 232.153 M70.863 249.414 C 70.863 253.066,70.921 254.613,70.993 252.851 C 71.066 251.089,71.066 248.101,70.994 246.211 C 70.922 244.320,70.863 245.762,70.863 249.414 M74.188 244.434 C 74.375 245.782,74.402 245.809,74.531 244.777 C 74.607 244.160,74.516 243.501,74.328 243.312 C 74.131 243.116,74.072 243.594,74.188 244.434 M213.797 245.313 C 213.797 246.709,213.868 247.280,213.954 246.582 C 214.041 245.884,214.041 244.741,213.954 244.043 C 213.868 243.345,213.797 243.916,213.797 245.313 M336.469 249.609 C 336.469 251.650,336.535 252.485,336.615 251.465 C 336.696 250.444,336.696 248.774,336.615 247.754 C 336.535 246.733,336.469 247.568,336.469 249.609 M193.471 249.414 C 193.474 250.488,193.550 250.881,193.640 250.288 C 193.729 249.694,193.727 248.815,193.634 248.334 C 193.542 247.854,193.468 248.340,193.471 249.414 M192.102 255.957 C 192.323 256.226,192.584 256.885,192.683 257.422 C 192.815 258.142,192.876 258.013,192.916 256.934 C 192.956 255.821,192.816 255.469,192.335 255.469 C 191.875 255.469,191.811 255.602,192.102 255.957 M313.413 258.203 C 313.413 259.814,313.482 260.474,313.566 259.668 C 313.650 258.862,313.650 257.544,313.566 256.738 C 313.482 255.933,313.413 256.592,313.413 258.203 M213.367 272.926 C 213.320 281.131,213.413 287.926,213.574 288.026 C 213.841 288.191,213.835 276.644,213.561 263.281 C 213.501 260.381,213.414 264.721,213.367 272.926 M302.521 285.645 L 300.977 287.305 302.637 285.761 C 304.181 284.325,304.476 283.984,304.181 283.984 C 304.117 283.984,303.370 284.731,302.521 285.645 M177.521 287.598 L 175.977 289.258 177.637 287.714 C 179.181 286.278,179.476 285.938,179.181 285.938 C 179.117 285.938,178.370 286.685,177.521 287.598 M125.098 295.972 C 125.474 296.071,126.089 296.071,126.465 295.972 C 126.841 295.874,126.533 295.794,125.781 295.794 C 125.029 295.794,124.722 295.874,125.098 295.972 M126.081 303.408 C 126.783 303.495,127.838 303.493,128.425 303.404 C 129.012 303.315,128.438 303.244,127.148 303.246 C 125.859 303.248,125.379 303.321,126.081 303.408 M133.112 303.408 C 133.815 303.495,134.869 303.493,135.456 303.404 C 136.043 303.315,135.469 303.244,134.180 303.246 C 132.891 303.248,132.410 303.321,133.112 303.408 M268.652 303.401 C 269.136 303.494,269.927 303.494,270.410 303.401 C 270.894 303.308,270.498 303.231,269.531 303.231 C 268.564 303.231,268.169 303.308,268.652 303.401 M276.081 303.408 C 276.783 303.495,277.838 303.493,278.425 303.404 C 279.012 303.315,278.438 303.244,277.148 303.246 C 275.859 303.248,275.379 303.321,276.081 303.408 " stroke="none" fill="#beac90" fill-rule="evenodd"></path><path id="path6" d="M89.687 135.638 C 89.740 136.667,90.023 137.447,90.462 137.767 C 90.843 138.046,91.041 138.386,90.903 138.524 C 90.765 138.662,90.859 139.147,91.112 139.602 C 91.365 140.057,91.535 140.562,91.489 140.723 C 91.444 140.884,91.576 141.016,91.783 141.016 C 91.990 141.016,92.360 141.388,92.603 141.844 C 92.962 142.515,92.947 142.612,92.519 142.355 C 91.819 141.933,92.704 143.066,94.581 144.994 C 95.361 145.795,95.916 146.532,95.815 146.633 C 95.714 146.734,95.832 147.137,96.077 147.529 C 96.467 148.154,96.490 148.128,96.266 147.314 C 96.111 146.751,96.160 146.479,96.391 146.622 C 96.600 146.751,96.495 146.246,96.156 145.499 C 95.817 144.752,95.380 144.141,95.183 144.141 C 94.987 144.141,95.067 144.448,95.362 144.824 C 95.849 145.445,95.835 145.458,95.210 144.968 C 94.682 144.553,94.625 144.303,94.965 143.893 C 95.290 143.501,95.292 143.359,94.970 143.359 C 94.729 143.359,94.531 143.546,94.531 143.773 C 94.531 144.001,94.355 144.078,94.141 143.945 C 93.926 143.813,93.750 143.222,93.750 142.633 C 93.750 142.044,93.530 141.326,93.262 141.036 C 92.947 140.697,92.935 140.601,93.229 140.766 C 93.574 140.959,93.577 140.738,93.245 139.858 C 92.936 139.039,92.705 138.836,92.465 139.171 C 92.256 139.464,92.214 139.238,92.356 138.585 C 92.529 137.793,92.454 137.572,92.064 137.722 C 91.718 137.855,91.384 137.402,91.081 136.391 C 90.378 134.045,89.584 133.616,89.687 135.638 M233.594 136.328 C 233.364 136.758,233.336 137.109,233.531 137.109 C 233.727 137.109,233.887 137.555,233.887 138.099 C 233.887 138.643,234.173 139.404,234.522 139.791 C 234.872 140.177,235.040 140.611,234.897 140.754 C 234.753 140.898,234.811 141.016,235.026 141.016 C 235.241 141.016,235.417 141.255,235.417 141.548 C 235.417 142.421,237.129 144.922,237.727 144.922 C 238.032 144.922,238.281 145.108,238.281 145.336 C 238.281 145.563,238.087 145.629,237.850 145.483 C 237.613 145.336,237.720 145.676,238.088 146.238 C 238.740 147.233,239.459 147.299,239.447 146.364 C 239.444 146.084,239.290 146.132,239.063 146.484 C 238.734 146.993,238.683 146.986,238.678 146.429 C 238.675 146.076,238.947 145.681,239.283 145.552 C 239.618 145.423,239.782 145.138,239.646 144.918 C 239.510 144.698,239.248 144.612,239.063 144.727 C 238.877 144.841,238.615 144.756,238.481 144.538 C 238.346 144.319,238.427 144.141,238.663 144.141 C 238.966 144.141,238.961 143.899,238.644 143.307 C 238.360 142.777,238.100 142.630,237.930 142.905 C 237.774 143.158,237.481 142.857,237.225 142.176 C 236.984 141.538,236.942 141.016,237.131 141.016 C 237.670 141.016,237.050 139.752,236.063 138.837 C 235.571 138.381,235.271 137.906,235.396 137.781 C 235.521 137.656,235.272 137.335,234.843 137.067 C 234.413 136.799,234.151 136.347,234.260 136.063 C 234.570 135.255,234.059 135.458,233.594 136.328 M240.081 145.540 C 239.717 146.489,239.799 147.339,240.230 147.073 C 240.451 146.936,240.517 147.093,240.384 147.438 C 240.257 147.771,240.012 147.955,239.839 147.849 C 239.667 147.742,239.729 148.087,239.978 148.614 C 240.583 149.898,242.033 150.575,242.359 149.725 C 242.490 149.385,242.504 149.015,242.392 148.902 C 242.280 148.790,242.188 148.903,242.188 149.154 C 242.188 149.708,241.155 149.761,240.823 149.223 C 240.692 149.011,240.813 148.924,241.093 149.031 C 241.452 149.168,241.611 148.792,241.635 147.757 C 241.653 146.950,241.595 146.507,241.506 146.774 C 241.382 147.144,241.212 147.127,240.790 146.705 C 240.486 146.401,240.343 145.875,240.473 145.537 C 240.602 145.199,240.621 144.922,240.513 144.922 C 240.406 144.922,240.211 145.200,240.081 145.540 M244.537 155.153 C 244.540 155.434,245.169 156.367,245.934 157.227 C 247.272 158.729,247.287 158.736,246.319 157.385 C 245.765 156.613,245.313 155.788,245.313 155.553 C 245.313 155.317,245.137 155.016,244.922 154.883 C 244.707 154.750,244.534 154.871,244.537 155.153 M312.524 245.149 C 312.682 245.979,312.459 246.249,312.067 245.703 C 311.726 245.229,311.695 245.267,311.905 245.898 C 312.047 246.328,312.358 247.515,312.594 248.535 C 312.831 249.556,313.140 250.391,313.281 250.391 C 313.421 250.391,313.478 250.962,313.406 251.660 C 313.301 252.676,313.346 252.773,313.629 252.148 C 313.865 251.628,313.938 252.410,313.848 254.492 C 313.745 256.866,313.782 257.175,314.001 255.778 C 314.406 253.200,314.764 253.083,314.586 255.587 C 314.449 257.512,314.517 257.716,315.422 258.128 C 315.963 258.375,316.406 258.751,316.406 258.964 C 316.406 259.176,316.699 259.238,317.056 259.101 C 317.475 258.941,317.612 259.005,317.441 259.282 C 317.294 259.518,317.346 259.817,317.555 259.946 C 317.764 260.076,317.825 260.468,317.690 260.819 C 317.526 261.245,317.597 261.363,317.903 261.173 C 318.183 261.000,318.500 261.257,318.721 261.837 C 318.919 262.358,319.355 262.889,319.690 263.018 C 320.025 263.146,320.206 263.494,320.093 263.790 C 319.979 264.086,320.156 264.552,320.486 264.825 C 320.815 265.099,320.982 265.491,320.855 265.696 C 320.728 265.901,320.972 266.159,321.397 266.270 C 321.821 266.381,322.398 266.900,322.678 267.423 C 323.205 268.407,323.841 268.051,323.795 266.797 C 323.780 266.402,323.656 266.465,323.411 266.992 C 323.149 267.560,323.108 267.345,323.262 266.208 C 323.566 263.964,318.854 251.992,317.898 252.583 C 317.722 252.691,317.578 252.464,317.578 252.077 C 317.578 251.280,314.931 247.266,314.406 247.266 C 314.217 247.266,314.106 247.046,314.160 246.777 C 314.214 246.509,314.025 246.337,313.740 246.396 C 313.456 246.455,313.322 246.344,313.443 246.148 C 313.564 245.952,313.392 245.566,313.060 245.291 C 312.728 245.015,312.487 244.951,312.524 245.149 M173.683 256.723 C 173.788 256.892,173.654 257.031,173.386 257.031 C 173.117 257.031,173.239 257.281,173.656 257.586 C 174.073 257.891,174.418 258.374,174.423 258.660 C 174.428 258.946,174.735 259.128,175.106 259.065 C 175.478 259.002,175.781 259.134,175.781 259.358 C 175.781 259.582,175.518 259.766,175.195 259.766 C 174.413 259.766,174.457 260.127,175.333 260.892 C 176.334 261.766,177.344 263.829,177.344 265.000 C 177.344 265.537,177.595 266.117,177.902 266.289 C 178.209 266.461,178.736 267.129,179.072 267.774 C 179.408 268.418,179.686 268.682,179.691 268.359 C 179.698 267.841,179.742 267.840,180.068 268.356 C 180.338 268.783,180.552 268.823,180.870 268.505 C 181.356 268.019,180.987 265.234,180.438 265.234 C 180.253 265.234,180.204 264.971,180.327 264.648 C 180.451 264.326,180.382 264.063,180.174 264.063 C 179.966 264.063,179.880 263.623,179.983 263.086 C 180.085 262.549,179.992 262.109,179.776 262.109 C 179.560 262.109,179.407 261.890,179.436 261.621 C 179.464 261.353,179.178 260.243,178.799 259.155 L 178.111 257.178 175.802 256.796 C 174.532 256.586,173.579 256.553,173.683 256.723 " stroke="none" fill="#644c34" fill-rule="evenodd"></path><path id="path7" d="M158.771 198.926 L 157.227 200.586 158.887 199.042 C 160.431 197.606,160.726 197.266,160.431 197.266 C 160.367 197.266,159.620 198.013,158.771 198.926 M186.222 251.844 C 186.915 251.931,188.146 251.932,188.956 251.848 C 189.767 251.763,189.199 251.692,187.695 251.691 C 186.191 251.689,185.528 251.758,186.222 251.844 M174.805 256.641 C 175.449 256.805,176.504 256.939,177.148 256.939 L 178.320 256.939 177.148 256.641 C 176.504 256.477,175.449 256.342,174.805 256.342 L 173.633 256.342 174.805 256.641 " stroke="none" fill="#545440" fill-rule="evenodd"></path><path id="path8" d="M88.816 134.082 C 88.946 134.565,89.054 135.093,89.057 135.254 C 89.060 135.415,89.218 135.547,89.408 135.547 C 89.952 135.547,90.189 134.095,89.720 133.627 C 89.016 132.923,88.566 133.149,88.816 134.082 M91.028 135.808 C 91.008 136.550,91.463 137.500,91.839 137.500 C 92.351 137.500,92.265 136.971,91.614 136.110 C 91.299 135.693,91.035 135.557,91.028 135.808 M235.248 137.581 C 235.305 137.859,235.713 138.441,236.155 138.876 C 237.089 139.795,237.591 140.911,237.149 141.088 C 236.980 141.156,237.062 141.738,237.331 142.383 L 237.821 143.555 238.095 142.473 C 238.379 141.356,237.684 139.063,237.062 139.063 C 236.873 139.063,236.719 138.805,236.719 138.490 C 236.719 138.176,236.365 137.729,235.932 137.497 C 235.327 137.173,235.169 137.193,235.248 137.581 M93.102 139.550 C 93.171 140.355,93.345 141.131,93.489 141.275 C 93.892 141.679,93.797 143.669,93.367 143.815 C 93.157 143.887,93.701 145.088,94.578 146.484 C 96.492 149.536,96.716 149.792,97.030 149.284 C 97.163 149.068,97.047 148.657,96.771 148.371 C 95.116 146.654,93.747 143.978,94.352 143.639 C 95.084 143.230,94.866 141.811,93.725 139.562 L 92.977 138.086 93.102 139.550 M238.754 143.960 C 238.477 144.274,238.301 144.549,238.364 144.570 C 239.564 144.981,240.544 144.720,240.202 144.079 C 239.742 143.221,239.428 143.196,238.754 143.960 M236.912 144.534 C 236.779 144.750,236.943 145.032,237.278 145.161 C 237.612 145.289,237.796 145.540,237.687 145.717 C 237.577 145.895,237.629 146.128,237.803 146.235 C 237.977 146.342,238.145 146.091,238.176 145.676 C 238.209 145.241,237.985 144.922,237.648 144.922 C 237.326 144.922,237.172 144.746,237.305 144.531 C 237.437 144.316,237.458 144.141,237.351 144.141 C 237.243 144.141,237.046 144.318,236.912 144.534 M239.302 148.540 C 240.432 150.495,241.138 151.215,241.443 150.722 C 241.662 150.367,241.455 150.038,240.793 149.691 C 240.258 149.411,239.913 149.033,240.025 148.851 C 240.138 148.668,239.958 148.415,239.626 148.288 C 239.219 148.132,239.113 148.214,239.302 148.540 M97.786 150.939 C 97.786 151.218,98.416 152.139,99.186 152.986 C 99.956 153.833,100.339 154.211,100.037 153.826 C 99.735 153.440,99.613 153.125,99.766 153.125 C 99.919 153.125,99.550 152.670,98.948 152.114 C 98.246 151.467,98.098 151.182,98.535 151.321 C 99.431 151.606,99.412 151.303,98.503 150.816 C 97.979 150.536,97.786 150.569,97.786 150.939 M242.206 152.632 C 242.703 153.328,243.200 153.806,243.311 153.694 C 243.422 153.583,243.016 153.014,242.409 152.430 L 241.304 151.367 242.206 152.632 M315.625 258.894 C 315.625 259.059,316.074 259.854,316.623 260.662 C 317.526 261.991,318.359 262.289,318.359 261.282 C 318.359 261.067,318.154 261.018,317.902 261.174 C 317.597 261.363,317.526 261.245,317.690 260.819 C 317.825 260.468,317.764 260.076,317.555 259.946 C 317.346 259.817,317.294 259.518,317.441 259.282 C 317.612 259.005,317.475 258.941,317.056 259.101 C 316.699 259.238,316.406 259.180,316.406 258.972 C 316.406 258.764,316.230 258.594,316.016 258.594 C 315.801 258.594,315.625 258.729,315.625 258.894 M174.859 261.523 C 174.982 261.846,175.241 262.109,175.432 262.109 C 175.624 262.109,175.781 262.560,175.781 263.112 C 175.781 264.272,176.419 265.625,176.967 265.625 C 177.882 265.625,176.775 261.995,175.629 261.236 C 174.932 260.775,174.617 260.893,174.859 261.523 M177.494 266.959 C 177.539 267.262,178.502 268.532,179.635 269.780 L 181.694 272.049 181.570 270.302 C 181.447 268.573,181.431 268.556,180.132 268.686 C 179.216 268.778,178.902 268.682,179.096 268.369 C 179.248 268.122,179.065 267.579,178.689 267.163 C 177.882 266.271,177.380 266.185,177.494 266.959 M321.700 266.764 C 321.354 267.324,322.213 269.219,322.682 268.930 C 322.911 268.788,323.345 268.997,323.646 269.394 C 323.948 269.792,324.199 269.937,324.206 269.716 C 324.213 269.495,323.711 268.758,323.089 268.078 C 322.468 267.398,322.058 266.744,322.178 266.624 C 322.298 266.504,322.289 266.406,322.158 266.406 C 322.028 266.406,321.822 266.567,321.700 266.764 " stroke="none" fill="#6c542c" fill-rule="evenodd"></path></g></svg>